<?xml version="1.0" encoding="UTF-8" standalone="no"?>
<svg width="512px" height="512px" viewBox="0 0 512 512" version="1.1" xmlns="http://www.w3.org/2000/svg" xmlns:xlink="http://www.w3.org/1999/xlink" style="background: #FFFFFF;">
    <!-- Generator: Sketch 3.7 (28169) - http://www.bohemiancoding.com/sketch -->
    <title>AppIcon</title>
    <desc>Created with Sketch.</desc>
    <defs>
        <linearGradient x1="50%" y1="0%" x2="50%" y2="100%" id="linearGradient-1">
            <stop stop-color="#0176D7" offset="0%"></stop>
            <stop stop-color="#004B8A" offset="100%"></stop>
        </linearGradient>
    </defs>
    <g id="Home" stroke="none" stroke-width="1" fill="none" fill-rule="evenodd">
        <g id="AppIcon">
            <g id="Group">
                <rect id="Bar" fill="url(#linearGradient-1)" x="0" y="0" width="512" height="512"></rect>
                <g id="Page-1" transform="translate(21.000000, 154.000000)" fill="#FFFFFF">
                    <path d="M461.808447,141.122187 C460.291004,141.122187 458.267747,140.616373 455.738676,140.110558 C453.209604,139.604744 450.680533,139.09893 447.645647,139.09893 C441.575875,138.087301 433.988661,137.075673 425.895632,136.064044 C417.29679,135.052416 407.686318,134.040787 397.064218,133.534973 C386.442118,133.029158 375.314203,132.523344 363.680475,132.523344 L345.47116,132.523344 L326.250217,132.523344 C313.099046,132.523344 299.947874,133.029158 285.785074,134.040787 C271.622274,135.052416 258.471102,135.55823 244.308302,136.569858 C237.226902,137.075673 230.651316,137.581487 223.569916,138.593116 C216.488516,139.09893 209.91293,139.604744 202.83153,140.616373 C199.29083,140.616373 195.75013,141.122187 192.715245,141.628001 C189.174545,141.628001 186.139659,142.133816 182.598959,142.63963 C179.058259,143.145444 176.023373,143.145444 172.482673,143.651258 C168.941973,144.157073 165.907087,144.157073 162.366387,144.662887 C149.215216,145.674516 136.569858,146.686144 124.430315,146.686144 C118.360544,146.686144 112.290772,147.191958 106.726815,147.191958 L90.0349437,147.191958 C79.4128436,147.191958 69.8023721,146.18033 61.2035291,145.168701 C52.6046862,144.157073 45.0174668,142.63963 38.9476953,141.122187 C35.9128096,140.616373 33.3837381,139.604744 30.8546667,138.593116 C28.8314095,138.087301 26.8081523,137.581487 25.2907145,136.569858 C23.7732666,136.064044 22.2558237,135.55823 21.7500094,134.546601 C21.2441951,134.040787 20.7383808,134.040787 20.7383808,134.040787 C20.7383808,134.040787 21.2441951,134.040787 21.7500094,134.546601 C22.2558237,134.546601 23.7732666,135.052416 25.2907145,135.55823 C26.8081523,136.064044 28.8314095,136.064044 31.3604809,136.569858 C33.8895524,137.075673 36.4186238,137.075673 39.4535096,137.581487 C42.4883953,137.581487 46.0290954,138.087301 49.5697954,138.087301 L61.2035291,138.087301 C69.8023721,138.087301 79.4128436,137.581487 89.5291294,137.075673 C94.5872723,137.075673 100.151229,136.569858 105.715187,136.064044 C111.279144,135.55823 117.348915,135.052416 122.912873,134.546601 C135.052416,133.534973 147.191958,132.01753 160.34313,130.500087 C166.918716,129.994273 173.494302,128.982644 180.069887,127.971015 C186.645473,127.465201 193.726873,126.453573 200.302459,125.441944 C207.383859,124.93613 213.959445,124.430315 221.040845,123.418687 C228.122245,122.912873 235.203645,122.407058 241.779231,121.901244 C255.942031,120.889615 270.104831,120.383801 283.761817,119.877987 L324.22696,119.877987 C330.802546,119.877987 337.378132,119.877987 343.447903,120.383801 C350.023489,120.383801 356.09326,120.889615 362.163032,121.39543 C374.302575,121.901244 385.430489,123.418687 396.052589,124.93613 C406.674689,126.453573 416.285161,127.971015 424.884004,129.488458 C433.482847,131.511715 440.564247,133.029158 446.634018,134.546601 C449.668904,135.052416 452.197976,136.064044 454.727047,137.075673 C457.256118,137.581487 459.279376,138.087301 460.796819,139.09893 C464.843333,141.628001 466.86659,142.133816 466.86659,142.133816 C466.86659,142.133816 464.843333,142.133816 461.808447,141.122187 Z" id="Fill-1"></path>
                    <polyline id="Fill-2" points="344.459532 29.3372288 353.564189 22.2558288 362.668846 29.3372288 359.128146 18.2093145 368.232803 11.1279144 357.104889 11.1279144 353.564189 0 350.023489 11.1279144 338.38976 11.1279144 347.494417 18.2093145"></polyline>
                    <path d="M109.255887,83.4593579 C109.255887,70.3081864 101.668672,62.720972 86.4942436,60.1919006 C99.6454152,57.1570148 105.715187,50.581429 105.715187,39.4535146 C105.715187,22.7616431 95.0930866,16.1860573 69.2965578,16.1860573 L27.3139717,16.1860573 L27.3139717,26.8081574 L34.3953717,26.8081574 C36.4186289,26.8081574 37.4302575,27.819786 37.4302575,30.8546717 L37.4302575,95.0930866 C37.4302575,98.1279723 36.9244432,99.1396009 34.3953717,99.1396009 L27.3139717,99.1396009 L27.3139717,109.761701 L69.2965578,109.761701 C97.1163437,108.750072 109.255887,101.162858 109.255887,83.4593579 M56.6512005,26.3023431 L68.2849292,26.3023431 C80.4244722,26.3023431 84.4709865,30.3488574 84.4709865,41.4767718 C84.4709865,52.0988719 78.9070293,56.6512005 67.2733006,56.6512005 L56.6512005,56.6512005 L56.6512005,26.3023431 M56.6512005,65.7558577 L70.8140006,65.7558577 C82.9535436,65.7558577 88.5175008,70.3081864 88.5175008,82.4477293 C88.5175008,94.081458 83.4593579,98.6337866 69.8023721,98.6337866 L56.6512005,98.6337866 L56.6512005,65.7558577" id="Fill-3"></path>
                    <path d="M440.058433,118.866358 C443.093318,119.877987 444.610761,120.889615 444.610761,120.889615 C444.610761,120.889615 443.093318,120.889615 439.552618,119.877987 C438.035175,119.372173 436.011918,119.372173 433.482847,118.866358 C430.953775,118.360544 428.424704,117.85473 425.389818,117.348915 C419.320047,116.337287 411.732832,115.325658 403.639804,114.31403 C395.040961,113.302401 385.936304,112.796587 375.314203,111.784958 C364.692103,111.279144 353.564189,110.77333 341.93046,110.267515 L303.994388,110.267515 C290.843217,110.267515 277.692045,110.77333 263.529245,111.279144 C249.872259,111.784958 235.709459,112.796587 222.052473,113.808215 C208.395488,114.819844 194.232687,116.337287 180.575702,117.85473 C177.540816,117.85473 173.494302,118.360544 170.459416,118.866358 C166.918716,118.866358 163.378016,119.372173 160.34313,119.877987 C153.767544,120.383801 147.191958,121.39543 140.616373,122.407058 C127.465201,123.418687 114.819844,124.93613 102.680301,125.441944 C90.540758,125.947758 79.4128436,125.947758 68.7907435,125.947758 C58.1686434,125.947758 48.5581769,125.441944 39.959334,124.430315 C31.3604911,123.924501 24.279091,122.407058 18.2093195,120.889615 C15.1744287,120.383801 12.6453623,119.372173 10.1162858,118.866358 C1.01162858,114.31403 2.52907145,114.819844 4.04651432,115.325658 C7.58721941,116.337287 12.139548,117.348915 18.2093195,117.85473 C21.2442053,117.85473 24.7849053,118.360544 28.3256053,118.360544 L39.959334,118.360544 L53.6163148,118.360544 C58.6744577,118.360544 63.7326006,118.360544 68.7907435,117.85473 C79.4128436,117.348915 90.540758,116.843101 102.174487,115.325658 C108.244258,114.819844 114.31403,114.31403 120.383801,113.302401 C126.959387,112.796587 133.029158,112.290772 139.604744,111.279144 C142.133816,110.77333 144.662887,110.77333 147.191958,110.267515 C122.912873,109.255887 111.279144,93.5756437 111.279144,71.3198149 C111.279144,48.0523576 125.947758,31.8663003 147.697773,31.8663003 C169.953602,31.8663003 182.093145,46.5349147 182.093145,71.3198149 L182.093145,75.8721436 L131.511715,75.8721436 C131.511715,90.0349437 138.593116,99.1396009 151.238473,99.1396009 C161.354759,99.1396009 166.918716,94.081458 170.459416,84.9768008 L181.58733,90.0349437 C178.552444,99.1396009 172.482673,106.221001 162.366387,109.761701 L184.622216,97.622158 L191.197802,97.622158 C192.715245,97.622158 193.726873,97.1163437 193.726873,93.5756437 L193.726873,50.581429 C193.726873,47.040729 193.221059,46.0291004 191.197802,46.0291004 L184.116402,46.0291004 L184.116402,34.3953717 L195.75013,34.3953717 C202.83153,34.3953717 209.407116,33.8895575 212.442002,32.8779289 L212.442002,49.0639862 C215.982702,36.9244432 223.064102,32.3721146 231.662945,32.3721146 C242.285045,32.3721146 248.354817,39.4535146 248.354817,50.581429 C248.354817,60.1919006 242.790859,66.7674863 234.697831,66.7674863 C229.639688,66.7674863 225.087359,62.2151577 225.087359,56.6512005 C225.087359,52.6046862 227.616431,48.0523576 232.168759,47.040729 C231.157131,46.0291004 229.133874,45.5232861 227.110616,45.5232861 C217.500145,45.5232861 212.947816,55.1337576 212.947816,70.3081864 L212.947816,93.5756437 C212.947816,97.1163437 213.959445,97.622158 215.476888,97.622158 L222.558288,97.622158 L222.558288,103.69193 C231.662945,103.186115 240.767602,102.680301 249.366445,102.680301 L249.366445,97.622158 L255.942031,97.622158 C257.459474,97.622158 258.471102,97.1163437 258.471102,93.5756437 L258.471102,50.581429 C257.965288,47.040729 257.459474,45.5232861 255.436217,45.5232861 L250.883888,45.5232861 C250.378074,42.4884004 247.849002,35.9128146 243.802488,33.8895575 L259.988545,33.8895575 C267.069945,33.8895575 273.645531,33.3837432 276.680417,32.3721146 L276.680417,47.040729 C281.232745,36.9244432 289.325774,31.8663003 300.453688,31.8663003 C315.122303,31.8663003 323.215332,40.9709575 323.215332,59.6860863 L323.215332,92.5640151 C323.215332,96.1047152 324.22696,96.6105295 325.744403,96.6105295 L332.319989,96.6105295 L332.319989,101.668672 L334.84906,101.668672 L334.84906,96.6105295 L341.424646,96.6105295 C342.942089,96.6105295 343.953717,96.1047152 343.953717,92.5640151 L343.953717,51.0872433 C343.953717,46.5349147 343.447903,45.0174718 340.918832,45.0174718 L335.354874,45.0174718 L335.354874,33.8895575 L346.988603,33.8895575 C354.070003,33.8895575 360.645589,33.3837432 363.680475,32.3721146 L363.680475,93.0698294 C363.680475,96.1047152 364.186289,97.1163437 366.209546,97.1163437 L372.279318,97.1163437 L372.279318,105.209372 C373.796761,105.209372 375.314203,105.209372 376.831646,105.715187 C384.418861,106.726815 391.500261,107.738444 397.570032,108.750072 C380.878161,104.197744 372.279318,89.5291294 372.279318,70.8140006 C372.279318,47.5465433 386.947932,31.360486 408.697947,31.360486 C430.953775,31.360486 443.093318,46.0291004 443.093318,70.8140006 L443.093318,74.860515 L392.006075,74.860515 C392.006075,89.0233151 399.087475,98.1279723 411.732832,98.1279723 C421.849118,98.1279723 427.413075,93.0698294 430.953775,83.9651722 L442.08169,89.0233151 C438.035175,101.162858 428.424704,110.267515 410.721204,110.267515 L406.168875,110.267515 C414.261904,111.784958 421.343304,113.302401 426.907261,114.819844 C429.942147,115.325658 432.471218,116.337287 435.00029,117.348915 C436.517733,117.85473 438.54099,118.360544 440.058433,118.866358 M391.500261,64.7442292 L422.860747,64.7442292 C422.860747,49.5698005 418.308418,44.0058433 408.192132,44.0058433 C398.075847,44.0058433 392.511889,50.0756147 391.500261,64.7442292 M304.500203,93.0698294 L304.500203,60.1919006 C304.500203,49.5698005 300.959503,45.5232861 292.866474,45.5232861 C283.256003,45.5232861 277.692045,53.6163148 277.692045,69.8023721 L277.692045,93.0698294 C277.692045,96.6105295 278.703674,97.1163437 280.221117,97.1163437 L285.785074,97.1163437 L285.785074,101.162858 L296.407174,101.162858 L296.407174,97.1163437 L301.971131,97.1163437 C303.994388,97.622158 304.500203,97.1163437 304.500203,93.0698294 M132.01753,64.7442292 L163.378016,64.7442292 C163.378016,49.5698005 158.825687,44.0058433 148.709401,44.0058433 C138.593116,44.0058433 133.029158,50.0756147 132.01753,64.7442292" id="Fill-4"></path>
                    <path d="M0,113.808215 C0,113.808215 0.50581429,113.808215 1.01162858,114.31403 C0.50581429,113.808215 0,113.808215 0,113.808215" id="Fill-5"></path>
                    <path d="M137.581487,177.035002 C135.052416,175.517559 132.523344,174.50593 129.488458,174.50593 C123.418687,174.50593 119.372173,178.552444 119.372173,185.633845 C119.372173,192.715245 123.418687,197.267573 129.994273,197.267573 C133.029158,197.267573 136.569858,196.255945 138.593116,194.232687 L139.604744,199.796645 C137.075673,201.314088 133.029158,202.325716 129.488458,202.325716 C119.877987,202.325716 113.302401,196.255945 113.302401,185.633845 C113.302401,175.517559 119.877987,168.941973 129.994273,168.941973 C133.534973,168.941973 137.581487,169.953602 140.110558,171.471044 L137.581487,177.035002" id="Fill-6"></path>
                    <path d="M162.872201,202.325716 C153.26173,202.325716 146.686144,196.255945 146.686144,185.633845 C146.686144,176.023373 153.767544,168.941973 162.872201,168.941973 C171.976859,168.941973 179.058259,175.011744 179.058259,185.633845 C179.058259,195.244316 172.482673,202.325716 162.872201,202.325716 M162.872201,174.50593 C156.80243,174.50593 152.755916,179.058259 152.755916,185.633845 C152.755916,192.715245 156.80243,197.267573 162.872201,197.267573 C168.941973,197.267573 172.988487,192.715245 172.988487,186.139659 C172.988487,179.058259 168.941973,174.50593 162.872201,174.50593" id="Fill-7"></path>
                    <polyline id="Fill-8" points="210.418745 169.953602 216.488516 169.953602 216.488516 201.819902 209.91293 201.819902 194.738502 178.552444 194.738502 201.314088 188.66873 201.314088 188.66873 169.447787 195.244316 169.447787 210.418745 192.715245 210.418745 169.953602"></polyline>
                    <polyline id="Fill-9" points="248.860631 169.953602 254.930402 169.953602 254.930402 201.819902 248.354817 201.819902 233.180388 178.552444 233.180388 201.314088 227.616431 201.314088 227.616431 169.447787 234.192016 169.447787 249.366445 192.715245 249.366445 169.953602"></polyline>
                    <polyline id="Fill-10" points="266.058317 201.314088 266.058317 169.447782 287.808331 169.447782 287.808331 174.505925 272.128088 174.505925 272.128088 182.598954 284.773445 182.598954 284.773445 187.657097 272.128088 187.657097 272.128088 195.750125 287.808331 195.750125 287.808331 200.808273 266.058317 200.808273"></polyline>
                    <path d="M320.180446,177.035002 C317.651374,175.517559 315.122303,174.50593 312.087417,174.50593 C306.017646,174.50593 301.971131,178.552444 301.971131,185.633845 C301.971131,192.715245 306.017646,197.267573 312.593231,197.267573 C315.628117,197.267573 319.168817,196.255945 321.192074,194.232687 L322.203703,199.796645 C319.674631,201.314088 315.628117,202.325716 312.087417,202.325716 C302.476946,202.325716 295.90136,196.255945 295.90136,185.633845 C295.90136,175.517559 302.476946,168.941973 312.593231,168.941973 C316.133931,168.941973 320.180446,169.953602 322.709517,171.471044 L320.180446,177.035002" id="Fill-11"></path>
                    <polyline id="Fill-12" points="344.965346 175.517564 344.965346 201.819906 338.895575 201.819906 338.895575 175.517564 328.273474 175.517564 328.273474 169.953607 355.587446 169.953607 355.587446 175.517564 344.965346 175.517564"></polyline>
                    <polyline id="Fill-13" points="32.3721146 186.139664 97.1163437 186.139664 97.1163437 188.162921 32.3721146 188.162921"></polyline>
                    <polyline id="Fill-14" points="369.244432 186.139664 433.988661 186.139664 433.988661 188.162921 369.244432 188.162921"></polyline>
                </g>
            </g>
        </g>
    </g>
</svg>