<?xml version="1.0" encoding="UTF-8" standalone="no"?>
<svg
   xmlns:dc="http://purl.org/dc/elements/1.1/"
   xmlns:cc="http://creativecommons.org/ns#"
   xmlns:rdf="http://www.w3.org/1999/02/22-rdf-syntax-ns#"
   xmlns:svg="http://www.w3.org/2000/svg"
   xmlns="http://www.w3.org/2000/svg"
   xmlns:sodipodi="http://sodipodi.sourceforge.net/DTD/sodipodi-0.dtd"
   xmlns:inkscape="http://www.inkscape.org/namespaces/inkscape"
   width="512px"
   height="512px"
   viewBox="0 0 512 512"
   version="1.1"
   style="background: #FFFFFF;"
   id="svg2"
   inkscape:version="0.91 r13725"
   sodipodi:docname="AppIconTransparent.svg"
   inkscape:export-filename="C:\Users\riley\Downloads\Bernie\Store Logos\StoreLogo.scale-200.png"
   inkscape:export-xdpi="35.15625"
   inkscape:export-ydpi="35.15625">
  <metadata
     id="metadata36">
    <rdf:RDF>
      <cc:Work
         rdf:about="">
        <dc:format>image/svg+xml</dc:format>
        <dc:type
           rdf:resource="http://purl.org/dc/dcmitype/StillImage" />
        <dc:title>AppIcon</dc:title>
      </cc:Work>
    </rdf:RDF>
  </metadata>
  <sodipodi:namedview
     pagecolor="#ffffff"
     bordercolor="#666666"
     borderopacity="1"
     objecttolerance="10"
     gridtolerance="10"
     guidetolerance="10"
     inkscape:pageopacity="0"
     inkscape:pageshadow="2"
     inkscape:window-width="1920"
     inkscape:window-height="1017"
     id="namedview34"
     showgrid="false"
     inkscape:zoom="1.3037281"
     inkscape:cx="569.43228"
     inkscape:cy="224.80671"
     inkscape:window-x="-8"
     inkscape:window-y="-8"
     inkscape:window-maximized="1"
     inkscape:current-layer="AppIcon" />
  <!-- Generator: Sketch 3.7 (28169) - http://www.bohemiancoding.com/sketch -->
  <title
     id="title4">AppIcon</title>
  <desc
     id="desc6">Created with Sketch.</desc>
  <defs
     id="defs8">
    <linearGradient
       x1="256"
       y1="0"
       x2="256"
       y2="512"
       id="linearGradient-1"
       gradientUnits="userSpaceOnUse"
       gradientTransform="translate(923.50543,55.993269)">
      <stop
         stop-color="#0176D7"
         offset="0%"
         id="stop11" />
      <stop
         stop-color="#004B8A"
         offset="100%"
         id="stop13" />
    </linearGradient>
  </defs>
  <g
     id="Home"
     stroke="none"
     stroke-width="1"
     fill="none"
     fill-rule="evenodd">
    <g
       id="AppIcon">
      <g
         style="fill:#ffffff"
         transform="translate(21,154)"
         id="Page-1">
        <path
           inkscape:connector-curvature="0"
           id="Fill-1"
           d="m 461.80845,141.12219 c -1.51745,0 -3.5407,-0.50582 -6.06977,-1.01163 -2.52908,-0.50582 -5.05815,-1.01163 -8.09303,-1.01163 -6.06978,-1.01163 -13.65699,-2.02326 -21.75002,-3.03489 -8.59884,-1.01162 -18.20931,-2.02325 -28.83141,-2.52907 -10.6221,-0.50581 -21.75002,-1.01163 -33.38375,-1.01163 l -18.20931,0 -19.22094,0 c -13.15117,0 -26.30235,0.50582 -40.46515,1.51745 -14.1628,1.01163 -27.31397,1.51744 -41.47677,2.52907 -7.0814,0.50581 -13.65698,1.01163 -20.73838,2.02326 -7.0814,0.50581 -13.65699,1.01162 -20.73839,2.02325 -3.5407,0 -7.0814,0.50582 -10.11629,1.01163 -3.5407,0 -6.57558,0.50582 -10.11628,1.01163 -3.5407,0.50581 -6.57559,0.50581 -10.11629,1.01163 -3.5407,0.50581 -6.57558,0.50581 -10.11628,1.01163 -13.15117,1.01163 -25.79653,2.02325 -37.93608,2.02325 -6.06977,0 -12.13954,0.50582 -17.70349,0.50582 l -16.691876,0 c -10.6221,0 -20.232572,-1.01163 -28.831415,-2.02326 -8.598843,-1.01163 -16.186062,-2.52907 -22.255834,-4.04651 -3.034885,-0.50582 -5.563957,-1.51745 -8.093028,-2.52907 -2.023258,-0.50582 -4.046515,-1.01163 -5.563953,-2.02326 -1.517447,-0.50582 -3.03489,-1.01163 -3.540705,-2.02326 -0.505814,-0.50581 -1.011628,-0.50581 -1.011628,-0.50581 0,0 0.505814,0 1.011628,0.50581 0.505815,0 2.023258,0.50582 3.540705,1.01163 1.517438,0.50581 3.540695,0.50581 6.069767,1.01163 2.529071,0.50581 5.058143,0.50581 8.093029,1.01163 3.034885,0 6.575585,0.50581 10.116285,0.50581 l 11.633734,0 c 8.598843,0 18.209315,-0.50581 28.3256,-1.01163 5.058143,0 10.622101,-0.50581 16.186061,-1.01163 5.56395,-0.50581 11.63373,-1.01162 17.19768,-1.51744 12.13955,-1.01163 24.27909,-2.52907 37.43026,-4.04651 6.57559,-0.50582 13.15117,-1.51745 19.72676,-2.52908 6.57558,-0.50581 13.65698,-1.51744 20.23257,-2.52907 7.0814,-0.50581 13.65698,-1.01163 20.73838,-2.02325 7.0814,-0.50582 14.1628,-1.01163 20.73839,-1.51745 14.1628,-1.01162 28.3256,-1.51744 41.98259,-2.02325 l 40.46514,0 c 6.57559,0 13.15117,0 19.22094,0.50581 6.57559,0 12.64536,0.50582 18.71513,1.01163 12.13954,0.50581 23.26746,2.02326 33.88956,3.5407 10.6221,1.51744 20.23257,3.03488 28.83141,4.55233 8.59885,2.02325 15.68025,3.5407 21.75002,5.05814 3.03488,0.50582 5.56396,1.51744 8.09303,2.52907 2.52907,0.50582 4.55233,1.01163 6.06977,2.02326 4.04651,2.52907 6.06977,3.03489 6.06977,3.03489 0,0 -2.02326,0 -5.05814,-1.01163 z" />
        <polyline
           points="344.459532 29.3372288 353.564189 22.2558288 362.668846 29.3372288 359.128146 18.2093145 368.232803 11.1279144 357.104889 11.1279144 353.564189 0 350.023489 11.1279144 338.38976 11.1279144 347.494417 18.2093145"
           id="Fill-2" />
        <path
           inkscape:connector-curvature="0"
           id="Fill-3"
           d="m 109.25589,83.459358 c 0,-13.151172 -7.58722,-20.738386 -22.761646,-23.267457 13.151171,-3.034886 19.220946,-9.610472 19.220946,-20.738386 0,-16.691872 -10.622103,-23.267458 -36.418632,-23.267458 l -41.982586,0 0,10.6221 7.0814,0 c 2.023257,0 3.034886,1.011629 3.034886,4.046515 l 0,64.238415 c 0,3.034885 -0.505815,4.046514 -3.034886,4.046514 l -7.0814,0 0,10.622099 41.982586,0 c 27.819786,-1.01163 39.959332,-8.59884 39.959332,-26.302342 m -52.604689,-57.157015 11.633728,0 c 12.139543,0 16.186057,4.046514 16.186057,15.174429 0,10.6221 -5.563957,15.174429 -17.197685,15.174429 l -10.6221,0 0,-30.348858 m 0,39.453515 14.1628,0 c 12.139543,0 17.7035,4.552328 17.7035,16.691871 0,11.633729 -5.058143,16.186058 -18.715129,16.186058 l -13.151171,0 0,-32.877929" />
        <path
           inkscape:connector-curvature="0"
           id="Fill-4"
           d="m 440.05843,118.86636 c 3.03489,1.01163 4.55233,2.02326 4.55233,2.02326 0,0 -1.51744,0 -5.05814,-1.01163 -1.51745,-0.50582 -3.5407,-0.50582 -6.06977,-1.01163 -2.52908,-0.50582 -5.05815,-1.01163 -8.09303,-1.51744 -6.06977,-1.01163 -13.65699,-2.02326 -21.75002,-3.03489 -8.59884,-1.01163 -17.7035,-1.51744 -28.3256,-2.52907 -10.6221,-0.50582 -21.75001,-1.01163 -33.38374,-1.51744 l -37.93607,0 c -13.15117,0 -26.30235,0.50581 -40.46515,1.01162 -13.65698,0.50582 -27.81978,1.51745 -41.47677,2.52908 -13.65698,1.01162 -27.81978,2.52907 -41.47677,4.04651 -3.03488,0 -7.0814,0.50581 -10.11628,1.01163 -3.5407,0 -7.0814,0.50581 -10.11629,1.01163 -6.57559,0.50581 -13.15117,1.51744 -19.72676,2.52907 -13.15117,1.01163 -25.79653,2.52907 -37.93607,3.03488 -12.139542,0.50582 -23.267456,0.50582 -33.889556,0.50582 -10.622101,0 -20.232567,-0.50582 -28.83141,-1.51745 -8.598843,-0.50581 -15.680243,-2.02325 -21.750015,-3.54069 -3.03489,-0.50582 -5.563957,-1.51745 -8.093033,-2.02326 -9.1046574,-4.55233 -7.5872145,-4.04652 -6.0697717,-3.5407 3.5407051,1.01163 8.0930337,2.02326 14.1628047,2.52907 3.034886,0 6.575586,0.50581 10.116286,0.50581 l 11.633729,0 13.656981,0 c 5.058143,0 10.116286,0 15.174429,-0.50581 10.6221,-0.50581 21.750014,-1.01163 33.383746,-2.52907 6.06977,-0.50582 12.13954,-1.01163 18.20931,-2.02326 6.57559,-0.50581 12.64536,-1.01163 19.22094,-2.02326 2.52908,-0.50581 5.05815,-0.50581 7.58722,-1.01162 -24.27909,-1.01163 -35.91282,-16.691876 -35.91282,-38.947705 0,-23.267457 14.66862,-39.453515 36.41863,-39.453515 22.25583,0 34.39537,14.668615 34.39537,39.453515 l 0,4.552329 -50.58143,0 c 0,14.1628 7.08141,23.267457 19.72676,23.267457 10.11629,0 15.68025,-5.058143 19.22095,-14.1628 l 11.12791,5.058143 c -3.03489,9.104657 -9.10466,16.186056 -19.22094,19.726756 l 22.25583,-12.139542 6.57558,0 c 1.51744,0 2.52907,-0.505814 2.52907,-4.046514 l 0,-42.994215 c 0,-3.5407 -0.50581,-4.552329 -2.52907,-4.552329 l -7.0814,0 0,-11.633728 11.63373,0 c 7.0814,0 13.65699,-0.505814 16.69187,-1.517443 l 0,16.186057 c 3.5407,-12.139543 10.6221,-16.691871 19.22094,-16.691871 10.6221,0 16.69188,7.0814 16.69188,18.209314 0,9.610472 -5.56396,16.186057 -13.65699,16.186057 -5.05814,0 -9.61047,-4.552328 -9.61047,-10.116285 0,-4.046515 2.52907,-8.598843 7.0814,-9.610472 -1.01163,-1.011629 -3.03489,-1.517443 -5.05814,-1.517443 -9.61048,0 -14.1628,9.610472 -14.1628,24.7849 l 0,23.267458 c 0,3.5407 1.01162,4.046514 2.52907,4.046514 l 7.0814,0 0,6.069772 c 9.10465,-0.50581 18.20931,-1.01163 26.80815,-1.01163 l 0,-5.058142 6.57559,0 c 1.51744,0 2.52907,-0.505814 2.52907,-4.046514 l 0,-42.994215 c -0.50581,-3.5407 -1.01163,-5.058143 -3.03488,-5.058143 l -4.55233,0 C 250.37807,42.4884 247.849,35.912815 243.80249,33.889558 l 16.18605,0 c 7.08141,0 13.65699,-0.505815 16.69188,-1.517443 l 0,14.668614 C 281.23275,36.924443 289.32577,31.8663 300.45369,31.8663 c 14.66861,0 22.76164,9.104657 22.76164,27.819786 l 0,32.877929 c 0,3.5407 1.01163,4.046514 2.52907,4.046514 l 6.57559,0 0,5.058141 2.52907,0 0,-5.058141 6.57559,0 c 1.51744,0 2.52907,-0.505814 2.52907,-4.046514 l 0,-41.476772 c 0,-4.552328 -0.50582,-6.069771 -3.03489,-6.069771 l -5.56396,0 0,-11.127914 11.63373,0 c 7.0814,0 13.65699,-0.505815 16.69187,-1.517443 l 0,60.697714 c 0,3.034886 0.50582,4.046515 2.52908,4.046515 l 6.06977,0 0,8.093026 c 1.51744,0 3.03488,0 4.55233,0.50582 7.58721,1.01163 14.66861,2.02325 20.73838,3.03488 -16.69187,-4.55233 -25.29071,-19.220941 -25.29071,-37.936069 0,-23.267458 14.66861,-39.453515 36.41863,-39.453515 22.25582,0 34.39537,14.668614 34.39537,39.453515 l 0,4.046514 -51.08725,0 c 0,14.1628 7.0814,23.267457 19.72676,23.267457 10.11629,0 15.68024,-5.058143 19.22094,-14.1628 l 11.12792,5.058143 C 438.03517,101.16286 428.4247,110.26752 410.7212,110.26752 l -4.55232,0 c 8.09302,1.51744 15.17442,3.03488 20.73838,4.55232 3.03489,0.50582 5.56396,1.51745 8.09303,2.52908 1.51744,0.50581 3.5407,1.01162 5.05814,1.51744 m -48.55817,-54.122131 31.36049,0 c 0,-15.174429 -4.55233,-20.738386 -14.66862,-20.738386 -10.11628,0 -15.68024,6.069772 -16.69187,20.738386 m -87.00006,28.3256 0,-32.877928 c 0,-10.622101 -3.5407,-14.668615 -11.63373,-14.668615 -9.61047,0 -15.17443,8.093029 -15.17443,24.279086 l 0,23.267457 c 0,3.5407 1.01163,4.046515 2.52908,4.046515 l 5.56395,0 0,4.046516 10.6221,0 0,-4.046516 5.56396,0 c 2.02326,0.505814 2.52907,0 2.52907,-4.046515 m -172.48267,-28.3256 31.36049,0 c 0,-15.174429 -4.55233,-20.738386 -14.66862,-20.738386 -10.11628,0 -15.68024,6.069772 -16.69187,20.738386" />
        <path
           inkscape:connector-curvature="0"
           id="Fill-5"
           d="m 0,113.80822 c 0,0 0.50581429,0 1.0116286,0.50581 C 0.50581429,113.80822 0,113.80822 0,113.80822" />
        <path
           inkscape:connector-curvature="0"
           id="Fill-6"
           d="m 137.58149,177.035 c -2.52907,-1.51744 -5.05815,-2.52907 -8.09303,-2.52907 -6.06977,0 -10.11629,4.04651 -10.11629,11.12791 0,7.0814 4.04652,11.63373 10.6221,11.63373 3.03489,0 6.57559,-1.01163 8.59885,-3.03488 l 1.01162,5.56395 c -2.52907,1.51745 -6.57558,2.52908 -10.11628,2.52908 -9.61047,0 -16.18606,-6.06978 -16.18606,-16.69188 0,-10.11628 6.57559,-16.69187 16.69187,-16.69187 3.5407,0 7.58722,1.01163 10.11629,2.52907 l -2.52907,5.56396" />
        <path
           inkscape:connector-curvature="0"
           id="Fill-7"
           d="m 162.8722,202.32572 c -9.61047,0 -16.18606,-6.06978 -16.18606,-16.69188 0,-9.61047 7.0814,-16.69187 16.18606,-16.69187 9.10466,0 16.18606,6.06977 16.18606,16.69187 0,9.61048 -6.57559,16.69188 -16.18606,16.69188 m 0,-27.81979 c -6.06977,0 -10.11628,4.55233 -10.11628,11.12791 0,7.0814 4.04651,11.63373 10.11628,11.63373 6.06977,0 10.11629,-4.55233 10.11629,-11.12791 0,-7.0814 -4.04652,-11.63373 -10.11629,-11.63373" />
        <polyline
           points="210.418745 169.953602 216.488516 169.953602 216.488516 201.819902 209.91293 201.819902 194.738502 178.552444 194.738502 201.314088 188.66873 201.314088 188.66873 169.447787 195.244316 169.447787 210.418745 192.715245 210.418745 169.953602"
           id="Fill-8" />
        <polyline
           points="248.860631 169.953602 254.930402 169.953602 254.930402 201.819902 248.354817 201.819902 233.180388 178.552444 233.180388 201.314088 227.616431 201.314088 227.616431 169.447787 234.192016 169.447787 249.366445 192.715245 249.366445 169.953602"
           id="Fill-9" />
        <polyline
           points="266.058317 201.314088 266.058317 169.447782 287.808331 169.447782 287.808331 174.505925 272.128088 174.505925 272.128088 182.598954 284.773445 182.598954 284.773445 187.657097 272.128088 187.657097 272.128088 195.750125 287.808331 195.750125 287.808331 200.808273 266.058317 200.808273"
           id="Fill-10" />
        <path
           inkscape:connector-curvature="0"
           id="Fill-11"
           d="m 320.18045,177.035 c -2.52908,-1.51744 -5.05815,-2.52907 -8.09303,-2.52907 -6.06977,0 -10.11629,4.04651 -10.11629,11.12791 0,7.0814 4.04652,11.63373 10.6221,11.63373 3.03489,0 6.57559,-1.01163 8.59884,-3.03488 l 1.01163,5.56395 c -2.52907,1.51745 -6.57558,2.52908 -10.11628,2.52908 -9.61047,0 -16.18606,-6.06978 -16.18606,-16.69188 0,-10.11628 6.57559,-16.69187 16.69187,-16.69187 3.5407,0 7.58722,1.01163 10.11629,2.52907 l -2.52907,5.56396" />
        <polyline
           points="344.965346 175.517564 344.965346 201.819906 338.895575 201.819906 338.895575 175.517564 328.273474 175.517564 328.273474 169.953607 355.587446 169.953607 355.587446 175.517564 344.965346 175.517564"
           id="Fill-12" />
        <polyline
           points="32.3721146 186.139664 97.1163437 186.139664 97.1163437 188.162921 32.3721146 188.162921"
           id="Fill-13" />
        <polyline
           points="369.244432 186.139664 433.988661 186.139664 433.988661 188.162921 369.244432 188.162921"
           id="Fill-14" />
      </g>
    </g>
  </g>
</svg>
